<?xml version="1.0" encoding="utf-8"?>
<!-- Generator: Adobe Illustrator 27.1.1, SVG Export Plug-In . SVG Version: 6.00 Build 0)  -->
<svg version="1.1" id="Layer_1" xmlns="http://www.w3.org/2000/svg" xmlns:xlink="http://www.w3.org/1999/xlink" x="0px" y="0px"
	 viewBox="0 0 1920 863.15" style="enable-background:new 0 0 1920 863.15;" xml:space="preserve">
<style type="text/css">
	.st0{fill:#DD303E;}
	.st1{fill:#0D134C;}
</style>
<g>
	<g>
		<path class="st0" d="M336.73,758.52h-23.41V608.19h127.99v21.26H336.73v44.67h98.14v21.26h-98.14V758.52z"/>
		<path class="st0" d="M605.81,758.52H582.4l-8.38-46.82h-89.77l-8.38,46.82h-23.41l16.32-92.13c7.95-44.88,24.27-61.63,60.34-61.63
			c36.29,0,52.4,16.75,60.35,61.63L605.81,758.52z M488.13,690.44h82.04l-4.08-23.41c-5.15-29.64-15.25-41.02-36.94-41.02
			c-21.69,0-31.57,11.17-36.94,41.02L488.13,690.44z"/>
		<path class="st0" d="M624.5,683.36c0-52.18,26.63-78.6,79.46-78.6c45.31,0,71.08,18.9,77.74,57.34h-24.05
			c-5.8-24.05-22.98-36.08-53.69-36.08c-38.01,0-56.05,18.47-56.05,57.34s18.04,57.34,56.05,57.34c30.71,0,47.89-12.03,53.69-36.08
			h24.05c-6.66,38.44-32.43,57.34-77.74,57.34C651.13,761.96,624.5,735.54,624.5,683.36z"/>
		<path class="st0" d="M928.8,608.19h23.41v80.53c0,49.39-23.84,73.23-73.02,73.23c-49.18,0-73.02-23.84-73.02-73.23v-80.53h23.41
			v80.53c0,36.08,15.25,51.97,49.61,51.97s49.61-15.89,49.61-51.97V608.19z"/>
		<path class="st0" d="M1107.9,758.52H986.35V608.19h23.41v129.07h98.14V758.52z"/>
		<path class="st0" d="M1202.82,608.19c51.54,0,75.16,23.62,75.16,75.16c0,51.54-23.62,75.16-75.16,75.16h-70.44V608.19H1202.82z
			 M1155.79,737.26h47.03c36.94,0,51.76-15.68,51.76-53.9s-14.82-53.9-51.76-53.9h-47.03V737.26z"/>
		<path class="st0" d="M1449.99,758.52h-23.41l-8.38-46.82h-89.77l-8.38,46.82h-23.41l16.32-92.13
			c7.95-44.88,24.27-61.63,60.34-61.63c36.29,0,52.4,16.75,60.35,61.63L1449.99,758.52z M1332.31,690.44h82.04l-4.08-23.41
			c-5.15-29.64-15.25-41.02-36.94-41.02c-21.69,0-31.57,11.17-36.94,41.02L1332.31,690.44z"/>
		<path class="st0" d="M1546.63,608.19c51.54,0,75.16,23.62,75.16,75.16c0,51.54-23.62,75.16-75.16,75.16h-70.44V608.19H1546.63z
			 M1499.6,737.26h47.03c36.94,0,51.76-15.68,51.76-53.9s-14.82-53.9-51.76-53.9h-47.03V737.26z"/>
		<path class="st0" d="M1779.63,758.52h-127.99V608.19h127.99v21.04h-104.58v41.02h98.14v21.04h-98.14v46.17h104.58V758.52z"/>
	</g>
	<g>
		<path class="st1" d="M1694.53,125.8v279.38l-150.74-255.33l-4.56-7.55l-0.03,0.04c-13.19-20.55-34.08-29.45-60.32-29.45
			c-32.94,0-62.29,21.85-62.29,59.4v332.4h83.26V225.31c51.77,87.63,103.53,175.26,155.3,262.88l0.03-0.04
			c13.19,20.55,34.08,29.45,60.33,29.45c32.94,0,62.29-21.85,62.29-59.4V125.8H1694.53z"/>
		<path class="st1" d="M1172.88,112.89c-93.4,0-133.13,42.22-153.25,161.84l-38.19,229.96h83.08l17.72-108.54H1263l17.72,108.54
			h83.08l-38.18-229.96C1305.49,155.11,1265.76,112.89,1172.88,112.89z M1094.44,324.53l7.74-47.09
			c10.84-63.87,28.38-86.06,70.69-86.06c41.8,0,59.34,22.19,70.18,86.06l7.74,47.09H1094.44z"/>
		<g>
			<path class="st0" d="M247.49,242.5l0.04-0.06c23.48-37.08,65.37-57.58,112.1-54.72c46.49,2.79,85.48,27.89,104.45,67.16h62.6
				v-61.71c-38.63-56.21-103.42-91.98-174.08-91.98c-0.3,0-0.6,0-0.91,0c-93.61,0-176.96,62.71-202.77,152.62l-0.31,1.07h91.58
				C242.43,250.56,244.87,246.39,247.49,242.5z"/>
			<g>
				<path class="st1" d="M526.67,297.34L526.67,297.34l-197.7,0v1.95v26.26v43.4h122.81v23.2c-31.16,48.63-85.45,60.69-130.56,48.69
					c-53.73-14.3-105.88-64.86-93.42-142.08l0.24-1.4h-86.29l-0.11,0.76c-6.69,58.32,12.89,117.73,53.72,163
					c40.72,45.14,97.9,63.98,156.73,63.26c0.75,0.01,1.5,0.01,2.25,0.01c48.86,0,78.62-27.6,97.44-44.39v24.71h74.89L526.67,297.34
					L526.67,297.34z"/>
			</g>
		</g>
		<path class="st1" d="M940.74,250.27c0-80.11-35.6-124.47-115.07-124.47h-224.3v378.89h83.08V368.96h83.09l80.93,135.73h92.27
			L851.47,365C913.39,351.46,940.74,317.39,940.74,250.27z M804.03,297.34H684.45v-99.91h119.58c30.44,0,53.63,19.65,53.63,49.96
			C857.66,277.69,834.48,297.34,804.03,297.34z"/>
	</g>
</g>
</svg>
